<svg width="454" height="302" xmlns="http://www.w3.org/2000/svg" xmlns:xlink="http://www.w3.org/1999/xlink" overflow="hidden"><defs><clipPath id="clip0"><rect x="0" y="0" width="454" height="302"/></clipPath></defs><g clip-path="url(#clip0)"><rect x="0" y="0" width="454" height="302.333" fill="#FFFFFF"/><path d="M241 178.107C241 157.442 257.789 140.689 278.5 140.689 299.211 140.689 316 157.442 316 178.107 316 198.772 299.211 215.524 278.5 215.524 257.789 215.524 241 198.772 241 178.107Z" fill="#A9D18E" fill-rule="evenodd"/><path d="M335 102.773C335 92.3028 343.283 83.815 353.5 83.815 363.717 83.815 372 92.3028 372 102.773 372 113.243 363.717 121.731 353.5 121.731 343.283 121.731 335 113.243 335 102.773Z" fill="#548235" fill-rule="evenodd"/><path d="M380 155.656C380 145.186 388.507 136.698 399 136.698 409.493 136.698 418 145.186 418 155.656 418 166.127 409.493 174.615 399 174.615 388.507 174.615 380 166.127 380 155.656Z" fill="#548235" fill-rule="evenodd"/><path d="M359 247.454C359 236.983 367.507 228.496 378 228.496 388.493 228.496 397 236.983 397 247.454 397 257.924 388.493 266.412 378 266.412 367.507 266.412 359 257.924 359 247.454Z" fill="#548235" fill-rule="evenodd"/><path d="M0 0 21.3761 24.0141" stroke="#A9D18E" stroke-width="2.66373" stroke-miterlimit="8" fill="none" fill-rule="evenodd" transform="matrix(1.00221 0 0 -1 313.5 146.244)"/><path d="M0 0 50.3817 13.7825" stroke="#A9D18E" stroke-width="2.66373" stroke-miterlimit="8" fill="none" fill-rule="evenodd" transform="matrix(1.00221 0 0 -1 322.5 173.929)"/><path d="M312.5 211.034 353.514 235.626" stroke="#A9D18E" stroke-width="2.66961" stroke-miterlimit="8" fill="none" fill-rule="evenodd"/><path d="M138 95.7886C138 74.848 155.013 57.8723 176 57.8723 196.987 57.8723 214 74.848 214 95.7886 214 116.729 196.987 133.705 176 133.705 155.013 133.705 138 116.729 138 95.7886Z" fill="#9DC3E6" fill-rule="evenodd"/><path d="M0 0 33.6069 5.13732" stroke="#2E75B6" stroke-width="2.66373" stroke-miterlimit="8" fill="none" fill-rule="evenodd" transform="matrix(1.00221 0 0 -1 100.5 100.427)"/><path d="M54 102.773C54 92.3028 62.5066 83.815 73 83.815 83.4934 83.815 92 92.3028 92 102.773 92 113.243 83.4934 121.731 73 121.731 62.5066 121.731 54 113.243 54 102.773Z" fill="#2E75B6" fill-rule="evenodd"/><path d="M96 178.606C96 168.135 104.507 159.648 115 159.648 125.493 159.648 134 168.135 134 178.606 134 189.076 125.493 197.564 115 197.564 104.507 197.564 96 189.076 96 178.606Z" fill="#2E75B6" fill-rule="evenodd"/><path d="M258 74.8348C258 64.3645 266.507 55.8767 277 55.8767 287.493 55.8767 296 64.3645 296 74.8348 296 85.3051 287.493 93.793 277 93.793 266.507 93.793 258 85.3051 258 74.8348Z" fill="#2E75B6" fill-rule="evenodd"/><path d="M0 0 15.5162 21.4961" stroke="#2E75B6" stroke-width="2.66373" stroke-miterlimit="8" fill="none" fill-rule="evenodd" transform="matrix(1.00221 0 0 -1 129.5 155.7)"/><path d="M0 0 33.6069 5.13732" stroke="#2E75B6" stroke-width="2.66373" stroke-miterlimit="8" fill="none" fill-rule="evenodd" transform="matrix(1.00221 0 0 -1 216.5 84.4623)"/><path d="M210.5 126.221 237.407 148.976" stroke="#2E75B6" stroke-width="2.66961" stroke-miterlimit="8" fill="none" fill-rule="evenodd"/><path d="M306.5 81.3205 324.761 89.2075" stroke="#2E75B6" stroke-width="2.66961" stroke-miterlimit="8" fill="none" fill-rule="evenodd"/></g></svg>