<?xml version="1.0" encoding="UTF-8" standalone="no"?>
<!DOCTYPE svg PUBLIC "-//W3C//DTD SVG 1.1//EN"
 "http://www.w3.org/Graphics/SVG/1.1/DTD/svg11.dtd">
<!-- Generated by graphviz version 2.43.0 (0)
 -->
<!-- Title: G Pages: 1 -->
<svg width="327pt" height="404pt"
 viewBox="0.00 0.00 327.25 404.00" xmlns="http://www.w3.org/2000/svg" xmlns:xlink="http://www.w3.org/1999/xlink">
<g id="graph0" class="graph" transform="scale(1 1) rotate(0) translate(4 400)">
<title>G</title>
<polygon fill="white" stroke="transparent" points="-4,4 -4,-400 323.25,-400 323.25,4 -4,4"/>
<!-- A -->
<g id="node1" class="node job">
<title>A</title>
<polygon fill="none" stroke="black" points="210.5,-396 108.5,-396 108.5,-360 210.5,-360 210.5,-396"/>
<text text-anchor="middle" x="159.5" y="-374.3" font-family="Times,serif" font-size="14.00">fetch&#45;data&#45;1</text>
</g>
<!-- B -->
<g id="node2" class="node artifact">
<title>B</title>
<ellipse fill="none" stroke="black" cx="159.5" cy="-306" rx="46.29" ry="18"/>
<text text-anchor="middle" x="159.5" y="-302.3" font-family="Times,serif" font-size="14.00">content</text>
</g>
<!-- A&#45;&gt;B -->
<g id="edge1" class="edge">
<title>A&#45;&gt;B</title>
<path fill="none" stroke="black" d="M159.5,-359.7C159.5,-351.98 159.5,-342.71 159.5,-334.11"/>
<polygon fill="black" stroke="black" points="163,-334.1 159.5,-324.1 156,-334.1 163,-334.1"/>
</g>
<!-- C -->
<g id="node3" class="node job">
<title>C</title>
<polygon fill="none" stroke="black" points="151,-252 0,-252 0,-216 151,-216 151,-252"/>
<text text-anchor="middle" x="75.5" y="-230.3" font-family="Times,serif" font-size="14.00">calculate&#45;functions</text>
</g>
<!-- B&#45;&gt;C -->
<g id="edge2" class="edge">
<title>B&#45;&gt;C</title>
<path fill="none" stroke="black" d="M140.86,-289.46C129.99,-280.41 116.07,-268.81 103.87,-258.64"/>
<polygon fill="black" stroke="black" points="106.08,-255.92 96.15,-252.21 101.59,-261.3 106.08,-255.92"/>
</g>
<!-- E -->
<g id="node5" class="node job">
<title>E</title>
<polygon fill="none" stroke="black" points="317.5,-252 169.5,-252 169.5,-216 317.5,-216 317.5,-252"/>
<text text-anchor="middle" x="243.5" y="-230.3" font-family="Times,serif" font-size="14.00">compute&#45;statistics</text>
</g>
<!-- B&#45;&gt;E -->
<g id="edge4" class="edge">
<title>B&#45;&gt;E</title>
<path fill="none" stroke="black" d="M178.14,-289.46C189.01,-280.41 202.93,-268.81 215.13,-258.64"/>
<polygon fill="black" stroke="black" points="217.41,-261.3 222.85,-252.21 212.92,-255.92 217.41,-261.3"/>
</g>
<!-- D -->
<g id="node4" class="node artifact">
<title>D</title>
<ellipse fill="none" stroke="black" cx="75.5" cy="-162" rx="33.6" ry="18"/>
<text text-anchor="middle" x="75.5" y="-158.3" font-family="Times,serif" font-size="14.00">stats</text>
</g>
<!-- C&#45;&gt;D -->
<g id="edge3" class="edge">
<title>C&#45;&gt;D</title>
<path fill="none" stroke="black" d="M75.5,-215.7C75.5,-207.98 75.5,-198.71 75.5,-190.11"/>
<polygon fill="black" stroke="black" points="79,-190.1 75.5,-180.1 72,-190.1 79,-190.1"/>
</g>
<!-- H -->
<g id="node8" class="node job">
<title>H</title>
<polygon fill="none" stroke="black" points="190.5,-108 50.5,-108 50.5,-72 190.5,-72 190.5,-108"/>
<text text-anchor="middle" x="120.5" y="-86.3" font-family="Times,serif" font-size="14.00">generate&#45;website</text>
</g>
<!-- D&#45;&gt;H -->
<g id="edge7" class="edge">
<title>D&#45;&gt;H</title>
<path fill="none" stroke="black" d="M85.94,-144.76C91.29,-136.44 97.93,-126.1 103.96,-116.73"/>
<polygon fill="black" stroke="black" points="107.03,-118.43 109.49,-108.12 101.14,-114.64 107.03,-118.43"/>
</g>
<!-- F -->
<g id="node6" class="node artifact">
<title>F</title>
<ellipse fill="none" stroke="black" cx="165.5" cy="-162" rx="38.19" ry="18"/>
<text text-anchor="middle" x="165.5" y="-158.3" font-family="Times,serif" font-size="14.00">result</text>
</g>
<!-- E&#45;&gt;F -->
<g id="edge5" class="edge">
<title>E&#45;&gt;F</title>
<path fill="none" stroke="black" d="M224.22,-215.7C213.91,-206.44 201.1,-194.95 190.09,-185.06"/>
<polygon fill="black" stroke="black" points="192.22,-182.28 182.44,-178.2 187.54,-187.49 192.22,-182.28"/>
</g>
<!-- G -->
<g id="node7" class="node artifact">
<title>G</title>
<ellipse fill="none" stroke="black" cx="270.5" cy="-162" rx="48.99" ry="18"/>
<text text-anchor="middle" x="270.5" y="-158.3" font-family="Times,serif" font-size="14.00">timeline</text>
</g>
<!-- E&#45;&gt;G -->
<g id="edge6" class="edge">
<title>E&#45;&gt;G</title>
<path fill="none" stroke="black" d="M250.17,-215.7C253.21,-207.81 256.88,-198.3 260.26,-189.55"/>
<polygon fill="black" stroke="black" points="263.57,-190.69 263.9,-180.1 257.04,-188.17 263.57,-190.69"/>
</g>
<!-- F&#45;&gt;H -->
<g id="edge8" class="edge">
<title>F&#45;&gt;H</title>
<path fill="none" stroke="black" d="M154.84,-144.41C149.56,-136.2 143.06,-126.1 137.15,-116.9"/>
<polygon fill="black" stroke="black" points="140.07,-114.97 131.72,-108.45 134.18,-118.75 140.07,-114.97"/>
</g>
<!-- I -->
<g id="node9" class="node artifact">
<title>I</title>
<ellipse fill="none" stroke="black" cx="120.5" cy="-18" rx="46.59" ry="18"/>
<text text-anchor="middle" x="120.5" y="-14.3" font-family="Times,serif" font-size="14.00">website</text>
</g>
<!-- H&#45;&gt;I -->
<g id="edge9" class="edge">
<title>H&#45;&gt;I</title>
<path fill="none" stroke="black" d="M120.5,-71.7C120.5,-63.98 120.5,-54.71 120.5,-46.11"/>
<polygon fill="black" stroke="black" points="124,-46.1 120.5,-36.1 117,-46.1 124,-46.1"/>
</g>
</g>
</svg>
