<?xml version="1.0" encoding="UTF-8" standalone="no"?>
<!DOCTYPE svg PUBLIC "-//W3C//DTD SVG 1.1//EN"
 "http://www.w3.org/Graphics/SVG/1.1/DTD/svg11.dtd">
<!-- Generated by graphviz version 2.43.0 (0)
 -->
<!-- Title: G Pages: 1 -->
<svg width="326pt" height="404pt"
 viewBox="0.00 0.00 325.50 404.00" xmlns="http://www.w3.org/2000/svg" xmlns:xlink="http://www.w3.org/1999/xlink">
<g id="graph0" class="graph" transform="scale(1 1) rotate(0) translate(4 400)">
<title>G</title>
<polygon fill="white" stroke="transparent" points="-4,4 -4,-400 321.5,-400 321.5,4 -4,4"/>
<!-- A -->
<g id="fetch&#45;data&#45;1" class="node job">
<title>A</title>
<polygon fill="none" stroke="black" points="210.5,-396 108.5,-396 108.5,-360 210.5,-360 210.5,-396"/>
<text text-anchor="middle" x="159.5" y="-374.3" font-family="Times,serif" font-size="14.00">fetch&#45;data&#45;1</text>
</g>
<!-- B -->
<g id="content" class="node artifact">
<title>B</title>
<ellipse fill="none" stroke="black" cx="159.5" cy="-306" rx="46.29" ry="18"/>
<text text-anchor="middle" x="159.5" y="-302.3" font-family="Times,serif" font-size="14.00">content</text>
</g>
<!-- A&#45;&gt;B -->
<g id="edge1" class="edge">
<title>A&#45;&gt;B</title>
<path fill="none" stroke="black" d="M159.5,-359.7C159.5,-351.98 159.5,-342.71 159.5,-334.11"/>
<polygon fill="black" stroke="black" points="163,-334.1 159.5,-324.1 156,-334.1 163,-334.1"/>
</g>
<!-- C -->
<g id="calculate&#45;functions" class="node job">
<title>C</title>
<polygon fill="none" stroke="black" points="151,-252 0,-252 0,-216 151,-216 151,-252"/>
<text text-anchor="middle" x="75.5" y="-230.3" font-family="Times,serif" font-size="14.00">calculate&#45;functions</text>
</g>
<!-- B&#45;&gt;C -->
<g id="edge2" class="edge">
<title>B&#45;&gt;C</title>
<path fill="none" stroke="black" d="M140.86,-289.46C129.99,-280.41 116.07,-268.81 103.87,-258.64"/>
<polygon fill="black" stroke="black" points="106.08,-255.92 96.15,-252.21 101.59,-261.3 106.08,-255.92"/>
</g>
<!-- E -->
<g id="compute&#45;statistics" class="node job">
<title>E</title>
<polygon fill="none" stroke="black" points="317.5,-252 169.5,-252 169.5,-216 317.5,-216 317.5,-252"/>
<text text-anchor="middle" x="243.5" y="-230.3" font-family="Times,serif" font-size="14.00">compute&#45;statistics</text>
</g>
<!-- B&#45;&gt;E -->
<g id="edge4" class="edge">
<title>B&#45;&gt;E</title>
<path fill="none" stroke="black" d="M178.14,-289.46C189.01,-280.41 202.93,-268.81 215.13,-258.64"/>
<polygon fill="black" stroke="black" points="217.41,-261.3 222.85,-252.21 212.92,-255.92 217.41,-261.3"/>
</g>
<!-- D -->
<g id="stats" class="node artifact">
<title>D</title>
<ellipse fill="none" stroke="black" cx="114.5" cy="-162" rx="33.6" ry="18"/>
<text text-anchor="middle" x="114.5" y="-158.3" font-family="Times,serif" font-size="14.00">stats</text>
</g>
<!-- C&#45;&gt;D -->
<g id="edge3" class="edge">
<title>C&#45;&gt;D</title>
<path fill="none" stroke="black" d="M85.14,-215.7C89.69,-207.52 95.22,-197.6 100.25,-188.58"/>
<polygon fill="black" stroke="black" points="103.43,-190.06 105.24,-179.62 97.31,-186.65 103.43,-190.06"/>
</g>
<!-- G -->
<g id="generate&#45;website" class="node job">
<title>G</title>
<polygon fill="none" stroke="black" points="229.5,-108 89.5,-108 89.5,-72 229.5,-72 229.5,-108"/>
<text text-anchor="middle" x="159.5" y="-86.3" font-family="Times,serif" font-size="14.00">generate&#45;website</text>
</g>
<!-- D&#45;&gt;G -->
<g id="edge6" class="edge">
<title>D&#45;&gt;G</title>
<path fill="none" stroke="black" d="M124.94,-144.76C130.29,-136.44 136.93,-126.1 142.96,-116.73"/>
<polygon fill="black" stroke="black" points="146.03,-118.43 148.49,-108.12 140.14,-114.64 146.03,-118.43"/>
</g>
<!-- F -->
<g id="result" class="node artifact">
<title>F</title>
<ellipse fill="none" stroke="black" cx="223.5" cy="-162" rx="38.19" ry="18"/>
<text text-anchor="middle" x="223.5" y="-158.3" font-family="Times,serif" font-size="14.00">result</text>
</g>
<!-- E&#45;&gt;F -->
<g id="edge5" class="edge">
<title>E&#45;&gt;F</title>
<path fill="none" stroke="black" d="M238.56,-215.7C236.33,-207.9 233.65,-198.51 231.17,-189.83"/>
<polygon fill="black" stroke="black" points="234.5,-188.76 228.39,-180.1 227.77,-190.68 234.5,-188.76"/>
</g>
<!-- F&#45;&gt;G -->
<g id="edge7" class="edge">
<title>F&#45;&gt;G</title>
<path fill="none" stroke="black" d="M208.98,-145.12C201.06,-136.46 191.09,-125.55 182.17,-115.8"/>
<polygon fill="black" stroke="black" points="184.64,-113.31 175.31,-108.29 179.47,-118.03 184.64,-113.31"/>
</g>
<!-- H -->
<g id="website" class="node artifact">
<title>H</title>
<ellipse fill="none" stroke="black" cx="159.5" cy="-18" rx="46.59" ry="18"/>
<text text-anchor="middle" x="159.5" y="-14.3" font-family="Times,serif" font-size="14.00">website</text>
</g>
<!-- G&#45;&gt;H -->
<g id="edge8" class="edge">
<title>G&#45;&gt;H</title>
<path fill="none" stroke="black" d="M159.5,-71.7C159.5,-63.98 159.5,-54.71 159.5,-46.11"/>
<polygon fill="black" stroke="black" points="163,-46.1 159.5,-36.1 156,-46.1 163,-46.1"/>
</g>
</g>
</svg>
